<?xml version="1.0" standalone="no"?>
<!DOCTYPE svg PUBLIC "-//W3C//DTD SVG 20010904//EN"
 "http://www.w3.org/TR/2001/REC-SVG-20010904/DTD/svg10.dtd">
<svg version="1.0" xmlns="http://www.w3.org/2000/svg"
 width="949.000000pt" height="260.000000pt" viewBox="0 0 949.000000 260.000000"
 preserveAspectRatio="xMidYMid meet">
<metadata>
Created by potrace 1.14, written by Peter Selinger 2001-2017
</metadata>
<g transform="translate(0.000000,260.000000) scale(0.100000,-0.100000)"
fill="#000000" stroke="none">
<path d="M8656 2549 l-26 -31 0 -375 0 -375 -67 62 c-74 67 -191 130 -288 155
-78 20 -262 20 -340 0 -205 -52 -385 -210 -464 -406 -36 -92 -50 -168 -51
-281 0 -125 18 -213 65 -314 83 -181 209 -293 415 -370 70 -26 84 -28 230 -28
148 1 159 2 238 32 46 17 102 42 126 56 145 85 254 221 310 387 33 98 37 179
34 826 l-3 641 -24 26 c-20 22 -33 26 -77 26 -46 0 -55 -4 -78 -31z m-421
-744 c239 -51 400 -256 399 -510 -1 -215 -112 -393 -301 -483 -76 -36 -81 -37
-198 -37 -96 0 -130 4 -170 20 -213 84 -331 244 -342 465 -9 168 40 303 147
410 67 66 134 104 232 130 89 23 141 24 233 5z"/>
<path d="M1907 2526 c-49 -18 -67 -34 -84 -73 -43 -105 20 -203 133 -203 43 0
56 5 88 33 42 37 58 87 46 143 -10 43 -52 90 -89 99 -14 3 -33 8 -41 10 -8 2
-32 -2 -53 -9z"/>
<path d="M3112 1999 c-120 -15 -209 -53 -296 -124 -31 -25 -57 -45 -59 -45 -3
0 -7 26 -10 58 -5 45 -12 62 -32 80 -48 41 -140 21 -164 -35 -8 -21 -11 -196
-9 -656 l3 -629 33 -29 c21 -18 43 -29 63 -29 37 0 84 23 95 47 5 10 11 216
14 458 l5 440 28 53 c73 139 225 222 407 222 234 0 397 -130 436 -348 10 -56
13 -179 14 -445 l0 -368 24 -24 c46 -46 103 -45 150 2 l27 27 -3 425 c-3 367
-6 434 -21 486 -33 112 -75 185 -156 265 -105 104 -208 153 -364 170 -91 11
-96 11 -185 -1z"/>
<path d="M4832 1999 c-122 -16 -268 -82 -326 -147 -11 -12 -22 -22 -26 -22 -4
0 -10 26 -13 58 -5 45 -12 62 -32 80 -54 46 -153 18 -170 -50 -3 -12 -4 -303
-3 -646 l3 -624 33 -29 c21 -18 43 -29 63 -29 37 0 84 23 95 47 5 10 11 216
14 458 l5 440 25 50 c75 150 242 234 440 222 187 -11 304 -87 378 -244 l27
-58 5 -420 c4 -315 8 -426 18 -442 15 -26 62 -53 92 -53 33 0 78 30 90 60 8
18 10 156 8 441 -4 455 -5 466 -70 599 -22 45 -55 88 -107 140 -105 104 -208
153 -364 170 -91 11 -96 11 -185 -1z"/>
<path d="M580 1994 c-108 -21 -255 -95 -338 -170 -116 -105 -193 -253 -222
-424 -7 -43 -10 -277 -8 -703 l3 -639 33 -29 c45 -41 102 -41 143 0 l29 29 0
376 c0 207 3 376 6 376 3 0 35 -26 70 -59 71 -64 166 -119 259 -147 85 -26
307 -26 385 0 222 75 379 226 454 436 30 82 31 90 30 255 0 165 -1 173 -31
252 -60 160 -175 295 -314 368 -128 67 -169 77 -329 80 -80 2 -156 1 -170 -1z
m248 -188 c243 -52 402 -256 402 -515 0 -160 -49 -279 -157 -383 -217 -206
-571 -180 -748 57 -140 186 -145 438 -13 636 110 164 319 247 516 205z"/>
<path d="M6400 1985 c-319 -89 -504 -367 -487 -733 8 -198 70 -345 198 -473
75 -76 158 -125 274 -165 72 -25 94 -28 220 -28 117 0 152 3 211 22 94 29 199
82 252 127 35 31 42 42 42 73 -1 54 -27 83 -81 89 -39 4 -51 0 -109 -38 -108
-69 -155 -83 -305 -83 -112 -1 -138 2 -189 22 -97 38 -177 101 -235 186 -37
54 -80 166 -81 209 l0 27 526 0 526 0 29 29 c26 27 29 35 29 98 -1 180 -69
352 -190 474 -73 75 -120 105 -231 150 -72 29 -314 37 -399 14z m282 -176
c119 -25 237 -118 292 -232 29 -59 59 -164 50 -178 -5 -9 -896 -13 -906 -4
-11 11 12 98 42 161 94 196 304 298 522 253z"/>
<path d="M1879 1961 l-29 -29 0 -637 0 -637 34 -34 c45 -45 91 -46 135 -5 l31
29 0 646 0 647 -26 24 c-40 37 -106 35 -145 -4z"/>
<path d="M9264 841 c-52 -32 -74 -72 -74 -134 0 -156 179 -211 274 -84 24 32
27 107 7 155 -29 69 -141 103 -207 63z"/>
</g>
</svg>
