<?xml version="1.0" standalone="no"?>
<!DOCTYPE svg PUBLIC "-//W3C//DTD SVG 20010904//EN"
 "http://www.w3.org/TR/2001/REC-SVG-20010904/DTD/svg10.dtd">
<svg version="1.0" xmlns="http://www.w3.org/2000/svg"
 width="449.000000pt" height="449.000000pt" viewBox="0 0 449.000000 449.000000"
 preserveAspectRatio="xMidYMid meet">
<metadata>
Created by potrace 1.11, written by Peter Selinger 2001-2013
</metadata>
<g transform="translate(0.000000,449.000000) scale(0.100000,-0.100000)"
fill="#000000" stroke="none">
<path d="M2040 4480 c-332 -46 -594 -160 -843 -368 -248 -206 -445 -544 -511
-873 -37 -185 -38 -240 -31 -1679 l6 -1405 25 -51 c16 -34 38 -61 64 -78 35
-23 50 -26 125 -26 56 0 96 5 114 14 33 18 87 77 104 115 9 19 13 254 17 880
l5 853 50 -62 c175 -220 501 -413 800 -475 191 -39 445 -39 640 0 628 126
1108 637 1210 1288 24 154 17 490 -14 628 -69 315 -204 563 -431 789 -238 238
-484 367 -830 435 -99 20 -401 29 -500 15z m503 -443 c401 -106 710 -421 813
-826 108 -423 -7 -880 -295 -1171 -225 -227 -528 -341 -866 -326 -239 11 -421
68 -598 188 -82 56 -227 196 -283 275 -249 349 -286 881 -89 1273 113 223 290
400 512 509 174 86 302 112 533 107 149 -3 189 -7 273 -29z"/>
</g>
</svg>
